<?xml version="1.0" encoding="UTF-8"?>
<!DOCTYPE svg PUBLIC "-//W3C//DTD SVG 1.1//EN" "http://www.w3.org/Graphics/SVG/1.1/DTD/svg11.dtd">
<!-- Creator: CorelDRAW 2020 (64-Bit) -->
<svg xmlns="http://www.w3.org/2000/svg" xml:space="preserve" width="125.403mm" height="91.3836mm" version="1.1" style="shape-rendering:geometricPrecision; text-rendering:geometricPrecision; image-rendering:optimizeQuality; fill-rule:evenodd; clip-rule:evenodd"
viewBox="0 0 12550.37 9145.7"
 xmlns:xlink="http://www.w3.org/1999/xlink"
 xmlns:xodm="http://www.corel.com/coreldraw/odm/2003">
 <defs>
  <style type="text/css">
   <![CDATA[
    .str0 {stroke:#4D4D4D;stroke-width:247.14;stroke-miterlimit:22.9256}
    .str2 {stroke:#4D4D4D;stroke-width:265.6;stroke-linecap:round;stroke-linejoin:round;stroke-miterlimit:22.9256}
    .str1 {stroke:#4D4D4D;stroke-width:265.75;stroke-linecap:round;stroke-linejoin:round;stroke-miterlimit:22.9256}
    .fil3 {fill:none}
    .fil2 {fill:#4D4D4D}
    .fil0 {fill:white}
    .fil1 {fill:#4D4D4D;fill-rule:nonzero}
   ]]>
  </style>
 </defs>
 <g id="Capa_x0020_1">
  <metadata id="CorelCorpID_0Corel-Layer"/>
  <path class="fil0 str0" d="M9350.09 4901.71c27.1,-268.26 405.79,-362.99 722.41,-385.42 922.3,-65.36 2062.69,445.09 2143.83,9.87 98.02,-525.72 -861.47,-1012.13 -2048.31,-992.32 -514.17,8.58 -776.91,253.35 -776.68,8.56 0.41,-437.63 548.83,-491.99 1138.04,-469.97 646.03,24.13 1208.91,241.26 1295.49,-129.38 131.83,-564.39 -1060.41,-1047.95 -2097.49,-865.99 -726.16,127.43 -707.53,102.34 -1363.74,-495.26 -120.19,-109.44 -245.6,-163.46 -366.97,-225.12 -260.67,-132.36 -767.21,1529.16 -767.21,1821.43l0 0.01c0,813.25 -506.4,1765.28 -171.24,2502.72l107.02 235.48c87.51,192.56 387.34,478.56 676.17,557.93 387.85,106.55 751.32,-396.68 1750.92,-455.31 962.83,-56.47 1694.06,377.9 1881.43,-26.79 300.47,-649.03 -654.71,-922.35 -1304.99,-994.28 -556.53,-61.55 -833.63,51.76 -818.68,-96.17z"/>
  <g>
   <path class="fil1" d="M12550.36 3962.65l-265.43 0 0 0 -5.89 -188.81 -17.46 -186.26 -28.76 -183.56 -39.79 -180.69 -50.54 -177.6 -61.05 -174.32 -71.29 -170.86 -81.26 -167.14 -90.99 -163.2 -100.45 -159.06 -109.65 -154.64 -118.6 -150.02 -127.24 -145.13 -135.66 -139.97 -143.76 -134.6 -151.59 -128.94 -159.16 -123.06 -166.42 -116.91 -173.4 -110.5 -180.1 -103.86 -186.49 -96.97 -192.6 -89.81 -198.43 -82.42 -203.94 -74.77 -209.17 -66.88 -214.11 -58.76 -218.76 -50.38 -223.1 -41.75 -227.15 -32.9 -230.92 -23.79 -234.39 -14.46 -237.59 -4.87 0 -265.75 248.44 5.09 245.26 15.12 241.76 24.91 237.96 34.46 233.85 43.78 229.44 52.84 224.74 61.66 219.74 70.27 214.43 78.61 208.82 86.74 202.91 94.62 196.72 102.27 190.19 109.69 183.41 116.88 176.27 123.84 168.87 130.54 161.14 137.07 153.08 143.33 144.75 149.38 136.07 155.17 127.08 160.77 117.77 166.11 108.12 171.21 98.16 176.07 87.84 180.7 77.21 185.05 66.23 189.15 54.9 192.97 43.27 196.5 31.31 199.77 19.01 202.73 6.4 205.34 0 0zm-4855.15 3962.66l0 -265.75 0 0 237.59 -4.87 234.39 -14.46 230.92 -23.79 227.15 -32.9 223.1 -41.75 218.76 -50.38 214.11 -58.76 209.17 -66.88 203.94 -74.77 198.43 -82.42 192.6 -89.81 186.49 -96.97 180.1 -103.86 173.4 -110.5 166.42 -116.91 159.16 -123.06 151.59 -128.94 143.76 -134.59 135.66 -139.99 127.24 -145.13 118.6 -150.01 109.65 -154.64 100.45 -159.06 90.99 -163.21 81.26 -167.14 71.29 -170.85 61.05 -174.32 50.54 -177.6 39.79 -180.7 28.76 -183.56 17.46 -186.26 5.89 -188.81 265.43 0 -6.4 205.34 -19.01 202.73 -31.31 199.77 -43.27 196.51 -54.9 192.97 -66.23 189.15 -77.21 185.04 -87.84 180.7 -98.16 176.08 -108.12 171.21 -117.77 166.11 -127.08 160.76 -136.07 155.17 -144.75 149.38 -153.08 143.34 -161.14 137.07 -168.87 130.54 -176.27 123.84 -183.41 116.88 -190.19 109.69 -196.72 102.27 -202.91 94.62 -208.82 86.74 -214.43 78.61 -219.74 70.27 -224.74 61.66 -229.44 52.84 -233.85 43.78 -237.96 34.46 -241.76 24.91 -245.26 15.12 -248.44 5.09 0 0zm-4855.16 -3962.66l265.43 0 0 0 5.89 188.81 17.46 186.26 28.76 183.56 39.79 180.69 50.55 177.61 61.04 174.32 71.29 170.85 81.26 167.14 90.99 163.21 100.46 159.06 109.64 154.65 118.59 150 127.26 145.13 135.65 139.99 143.76 134.59 151.6 128.94 159.16 123.06 166.42 116.91 173.4 110.5 180.1 103.86 186.49 96.97 192.6 89.81 198.43 82.42 203.94 74.77 209.17 66.88 214.11 58.76 218.76 50.38 223.1 41.75 227.15 32.9 230.92 23.79 234.39 14.46 237.59 4.87 0 265.75 -248.44 -5.09 -245.26 -15.12 -241.76 -24.91 -237.96 -34.46 -233.85 -43.78 -229.44 -52.84 -224.74 -61.66 -219.74 -70.27 -214.43 -78.61 -208.82 -86.74 -202.91 -94.62 -196.72 -102.27 -190.19 -109.69 -183.41 -116.88 -176.27 -123.84 -168.87 -130.54 -161.13 -137.07 -153.1 -143.34 -144.74 -149.38 -136.07 -155.17 -127.09 -160.77 -117.76 -166.1 -108.13 -171.21 -98.16 -176.08 -87.84 -180.7 -77.21 -185.04 -66.22 -189.15 -54.91 -192.96 -43.27 -196.52 -31.31 -199.77 -19.01 -202.73 -6.4 -205.34 0 0zm4855.16 -3962.65l0 265.75 0 0 -237.59 4.87 -234.39 14.46 -230.92 23.79 -227.15 32.9 -223.1 41.75 -218.76 50.38 -214.11 58.76 -209.17 66.88 -203.94 74.77 -198.43 82.42 -192.6 89.81 -186.49 96.97 -180.1 103.86 -173.4 110.5 -166.42 116.91 -159.16 123.06 -151.6 128.94 -143.76 134.6 -135.65 139.97 -127.25 145.13 -118.6 150.01 -109.64 154.65 -100.46 159.06 -90.99 163.2 -81.26 167.14 -71.29 170.85 -61.04 174.33 -50.55 177.61 -39.79 180.68 -28.76 183.56 -17.46 186.26 -5.89 188.81 -265.43 0 6.4 -205.34 19.01 -202.73 31.31 -199.77 43.27 -196.51 54.91 -192.96 66.22 -189.14 77.21 -185.06 87.84 -180.7 98.16 -176.07 108.13 -171.21 117.76 -166.1 127.08 -160.78 136.08 -155.17 144.74 -149.38 153.1 -143.33 161.13 -137.07 168.87 -130.54 176.27 -123.84 183.41 -116.88 190.19 -109.69 196.72 -102.27 202.91 -94.62 208.82 -86.74 214.43 -78.61 219.74 -70.27 224.74 -61.66 229.44 -52.84 233.85 -43.78 237.96 -34.46 241.76 -24.91 245.26 -15.12 248.44 -5.09 0 0z"/>
  </g>
  <path class="fil0 str1" d="M4449.66 6682.93l-155.13 -191.6c-76.44,-279.76 -221.99,-550.77 -496.91,-741.27 -282.78,-195.9 1126.57,-646.97 2378.58,-215.25 3121.33,1076.24 2008.03,804.05 2008.03,1558.19 0,79.45 -9.31,161.24 -27.19,243.93l366.17 271.58c197.15,146.26 238.81,427.15 92.56,624.3l0 0c-146.23,197.15 -427.12,238.81 -624.27,92.56l-267.48 -198.41c-61.45,66.09 -128.42,129.32 -200.57,188.71 -0.55,308.85 -251.03,559.01 -559.98,559.01 -132.74,0 -254.63,-46.19 -350.58,-123.33 -148.64,30.76 -305.26,46.69 -468.83,44.5 -230.15,-3.06 -436.67,-34.12 -620.23,-87.53 -100.88,97.86 -238.31,158.1 -389.93,158.1 -269.05,0 -493.7,-189.69 -547.63,-442.64 -1035.32,-106.2 -2075.16,-111.15 -2862.63,431.72 -123.55,85.18 -399.1,216.6 -475.48,128.09 -187.33,-212.49 -56.96,-585.45 44.47,-737.72 494.1,-741.17 1723.17,-921.67 2714.7,-1080.48 152.32,-45.15 215.33,-118.9 286.32,-192.6 170.59,-177.03 211.89,-220.83 156.02,-289.85z"/>
  <path class="fil0 str0" d="M2870.78 4733.4c-143.23,-111.38 -384.38,-159.21 -597.4,-174.3 -922.3,-65.35 -2062.68,445.09 -2143.83,9.87 -98.02,-525.72 861.47,-1012.13 2048.31,-992.32 205.79,3.43 371.31,44.7 495.79,77.27 366.56,95.9 361.26,-124.95 194.03,-320.54 -177.37,-207.38 -602.44,-234.91 -1051.16,-218.15 -646.02,24.13 -1208.92,241.26 -1295.5,-129.38 -131.83,-564.39 1060.41,-1047.95 2097.5,-865.99 726.15,127.43 707.52,102.34 1363.74,-495.26 120.18,-109.44 245.59,-163.46 366.97,-225.12 260.66,-132.36 767.2,1529.16 767.2,1821.43l0 0.01c0,813.25 506.4,1765.28 171.24,2502.72l-107.02 235.48c-87.51,192.56 -387.33,478.56 -676.17,557.93 -387.85,106.55 -751.32,-396.68 -1750.92,-455.31 -962.83,-56.47 -1694.05,377.9 -1881.42,-26.79 -300.48,-649.03 654.7,-922.35 1304.98,-994.28 258.59,-28.59 456.86,-19.44 593.51,-16.28 280.18,6.46 305.57,-131.27 100.16,-291z"/>
  <ellipse class="fil0" cx="7692.83" cy="3962.98" rx="4592.59" ry="3719.2"/>
  <path class="fil2" d="M7032.07 3738.43c173.27,0 313.74,140.47 313.74,313.74 0,173.27 -140.47,313.74 -313.74,313.74 -173.27,0 -313.74,-140.47 -313.74,-313.74 0,-173.27 140.47,-313.74 313.74,-313.74zm-104.01 91.09c65.5,0 118.64,53.12 118.64,118.64 0,65.51 -53.13,118.64 -118.64,118.64 -65.51,0 -118.64,-53.12 -118.64,-118.64 0,-65.51 53.12,-118.64 118.64,-118.64z"/>
  <path class="fil2" d="M11267.3 3738.43c173.27,0 313.74,140.47 313.74,313.74 0,173.27 -140.47,313.74 -313.74,313.74 -173.27,0 -313.74,-140.47 -313.74,-313.74 0,-173.27 140.47,-313.74 313.74,-313.74zm-104.01 91.09c65.51,0 118.64,53.12 118.64,118.64 0,65.51 -53.12,118.64 -118.64,118.64 -65.51,0 -118.64,-53.12 -118.64,-118.64 0,-65.51 53.12,-118.64 118.64,-118.64z"/>
  <path class="fil1" d="M8324.97 5339.87c-71.1,-17.18 -114.76,-88.77 -97.59,-159.87 17.17,-71.09 88.77,-114.75 159.86,-97.58 552.3,134.35 1104.66,138.31 1656.93,0 71.09,-17.78 143.13,25.44 160.91,96.53 17.78,71.09 -25.43,143.13 -96.53,160.92 -594.49,148.88 -1189.07,144.62 -1783.58,0z"/>
  <path class="fil3 str2" d="M4499.03 6801.92c-534.87,421.25 -616.2,765.86 -386.51,1014.48 253.96,274.91 587.72,174.79 865.45,-285.34"/>
 </g>
</svg>
